<svg width="180" height="39" viewBox="0 0 180 39" fill="none" xmlns="http://www.w3.org/2000/svg">
<g clip-path="url(#clip0_17_4)">
<path d="M44.2699 11.9821C43.388 11.9821 42.6344 11.8383 41.9931 11.5665C41.3517 11.2948 40.8547 10.8952 40.4859 10.3837C40.1332 9.87215 39.9247 9.26474 39.8927 8.56141H41.6724C41.7205 8.97701 41.8488 9.32868 42.0893 9.60042C42.3298 9.88814 42.6344 10.0959 43.0193 10.2238C43.4041 10.3677 43.8049 10.4316 44.2539 10.4316C44.7509 10.4316 45.1838 10.3517 45.5686 10.1918C45.9695 10.032 46.2741 9.8242 46.4826 9.53648C46.707 9.24875 46.8193 8.92906 46.8193 8.56141C46.8193 8.20975 46.7231 7.93801 46.5307 7.71423C46.3383 7.50643 46.0817 7.3306 45.745 7.18673C45.4083 7.04287 45.0395 6.91499 44.6066 6.8031L43.2437 6.43545C42.2977 6.1797 41.5441 5.79607 41.015 5.30054C40.4699 4.78904 40.2133 4.14965 40.2133 3.35042C40.2133 2.67906 40.3897 2.08763 40.7585 1.5921C41.1112 1.09658 41.6083 0.696964 42.2336 0.425225C42.8589 0.137501 43.5644 0.00962448 44.3501 0.00962448C45.1357 0.00962448 45.8412 0.137501 46.4505 0.425225C47.0598 0.696964 47.5408 1.0806 47.8775 1.56014C48.2303 2.05566 48.4227 2.59914 48.4387 3.22254H46.691C46.6269 2.69505 46.3864 2.27945 45.9535 1.99172C45.5205 1.68801 44.9594 1.54415 44.302 1.54415C43.837 1.54415 43.4201 1.62407 43.0834 1.76794C42.7306 1.9118 42.4581 2.1196 42.2817 2.37535C42.0893 2.63111 41.9931 2.91883 41.9931 3.25451C41.9931 3.62216 42.1053 3.90988 42.3298 4.14965C42.5543 4.37343 42.8269 4.54927 43.1636 4.67714C43.4842 4.821 43.8049 4.91691 44.0935 4.99684L45.2319 5.30054C45.6007 5.39645 45.9855 5.50834 46.3703 5.66819C46.7712 5.82804 47.1239 6.03584 47.4606 6.29159C47.7973 6.54735 48.0699 6.85106 48.2784 7.23469C48.4868 7.60233 48.583 8.0499 48.583 8.5774C48.583 9.23277 48.4227 9.8242 48.086 10.3357C47.7332 10.8472 47.2522 11.2468 46.6108 11.5505C45.9535 11.8383 45.1838 11.9821 44.2699 11.9821Z" fill="black"/>
<path d="M49.7393 11.7903L53.8921 0.153461H56.0887L60.3056 11.7903H58.3815L56.1047 5.3165C55.9284 4.78901 55.736 4.18159 55.5275 3.46228C55.3191 2.74297 55.0625 1.89579 54.79 0.90474H55.1587C54.8862 1.91177 54.6457 2.77494 54.4372 3.49425C54.2288 4.21356 54.0364 4.82098 53.876 5.3165L51.6634 11.7903H49.7393ZM51.984 8.72124V7.23466H58.0609V8.72124H51.984Z" fill="black"/>
<path d="M62.0025 11.7903V0.153461H63.7823V10.2558H69.0574V11.7903H62.0025Z" fill="black"/>
<path d="M73.2524 11.7903L69.0355 0.153461H70.9596L73.2364 6.62725C73.3967 7.13875 73.5891 7.74617 73.8136 8.46548C74.022 9.18479 74.2625 10.048 74.5351 11.023H74.1824C74.4549 10.016 74.6954 9.16881 74.9039 8.4495C75.1123 7.73019 75.3047 7.13875 75.4651 6.62725L77.6617 0.153461H79.6018L75.433 11.7903H73.2524Z" fill="black"/>
<path d="M79.25 11.7903L83.4027 0.153461H85.5994L89.8163 11.7903H87.8922L85.6154 5.3165C85.439 4.78901 85.2466 4.18159 85.0382 3.46228C84.8298 2.74297 84.5732 1.89579 84.3006 0.90474H84.6694C84.3968 1.91177 84.1563 2.77494 83.9479 3.49425C83.7394 4.21356 83.547 4.82098 83.3867 5.3165L81.174 11.7903H79.25ZM81.4947 8.72124V7.23466H87.5715V8.72124H81.4947Z" fill="black"/>
<path d="M89.5343 1.68799V0.153461H98.5934V1.68799H94.9698V11.7903H93.174V1.68799H89.5343Z" fill="black"/>
<path d="M104.969 11.9502C103.959 11.9502 103.061 11.7104 102.259 11.2308C101.473 10.7513 100.832 10.064 100.383 9.18481C99.9181 8.28967 99.6936 7.2187 99.6936 5.98788C99.6936 4.74108 99.9181 3.67011 100.383 2.77497C100.832 1.87983 101.473 1.20847 102.259 0.728934C103.061 0.249395 103.959 0.00962448 104.969 0.00962448C105.979 0.00962448 106.877 0.249395 107.662 0.728934C108.448 1.20847 109.073 1.87983 109.538 2.77497C109.987 3.67011 110.228 4.74108 110.228 5.98788C110.228 7.2187 109.987 8.28967 109.538 9.18481C109.073 10.064 108.448 10.7513 107.662 11.2308C106.877 11.7104 105.979 11.9502 104.969 11.9502ZM104.969 10.3197C105.626 10.3197 106.219 10.1599 106.749 9.8242C107.278 9.48852 107.679 9.00898 107.983 8.35361C108.288 7.71423 108.448 6.91499 108.448 5.98788C108.448 5.04479 108.288 4.24556 107.983 3.59019C107.679 2.9508 107.278 2.45528 106.749 2.1196C106.219 1.78392 105.626 1.62407 104.969 1.62407C104.295 1.62407 103.702 1.79991 103.173 2.13558C102.644 2.45528 102.227 2.9508 101.922 3.60617C101.618 4.24556 101.473 5.04479 101.473 5.98788C101.473 6.91499 101.618 7.71423 101.922 8.35361C102.227 8.993 102.644 9.48852 103.173 9.8242C103.702 10.1599 104.295 10.3197 104.969 10.3197Z" fill="black"/>
<path d="M112.402 11.7903V0.153461H116.571C117.468 0.153461 118.222 0.313308 118.815 0.633001C119.425 0.936709 119.874 1.3683 120.162 1.91177C120.467 2.47124 120.611 3.09464 120.611 3.81395C120.611 4.53326 120.467 5.15666 120.162 5.70014C119.858 6.24361 119.409 6.65921 118.815 6.94694C118.222 7.25065 117.468 7.39451 116.555 7.39451H113.412V5.87597H116.378C116.955 5.87597 117.42 5.79604 117.773 5.6362C118.126 5.46037 118.382 5.23658 118.559 4.91689C118.719 4.61318 118.799 4.24553 118.799 3.81395C118.799 3.38236 118.719 2.99873 118.559 2.67904C118.382 2.35934 118.126 2.11957 117.773 1.94374C117.42 1.76791 116.955 1.68799 116.378 1.68799H114.182V11.7903H112.402ZM119.024 11.7903L116.202 6.53134H118.174L121.06 11.7903H119.024Z" fill="black"/>
<path d="M122.791 11.7903V0.153461H130.118V1.68799H124.571V5.15666H129.734V6.6752H124.571V10.2558H130.182V11.7903H122.791Z" fill="black"/>
<path d="M36.1536 0.00012207H-0.000183105V37.652H36.1536V0.00012207Z" fill="black"/>
<path d="M46.6773 37.5621H41.2226V34.6317H46.4954C48.1621 34.6317 49.5561 34.2994 50.6471 33.6951C51.7683 33.0607 52.5865 32.1544 53.1319 30.946C53.6774 29.7375 53.9805 28.2874 53.9805 26.5352C53.9805 24.8132 53.6774 23.3631 53.1319 22.1849C52.5865 20.9765 51.7683 20.0701 50.7077 19.4659C49.6167 18.8315 48.2834 18.5294 46.6773 18.5294H41.1014V15.5687H46.8894C49.0713 15.5687 50.9198 16.0219 52.4653 16.898C54.0108 17.7741 55.1926 19.043 56.0411 20.6743C56.8593 22.3057 57.2836 24.2694 57.2836 26.5352C57.2836 28.8312 56.8593 30.7949 56.0411 32.4565C55.1926 34.0879 53.9805 35.3567 52.4047 36.2328C50.8289 37.109 48.9197 37.5621 46.6773 37.5621ZM42.8893 15.5687V37.5621H39.5256V15.5687H42.8893Z" fill="black"/>
<path d="M61.4005 37.5621V15.5687H75.2492V18.469H64.7642V25.0247H74.522V27.8947H64.7642V34.6619H75.3705V37.5621H61.4005Z" fill="black"/>
<path d="M85.0273 37.5621V15.5687H92.9062C94.6032 15.5687 96.0275 15.8708 97.1487 16.4751C98.3003 17.0491 99.1488 17.8648 99.6942 18.8919C100.27 19.9493 100.543 21.1275 100.543 22.487C100.543 23.8465 100.27 25.0247 99.6942 26.0518C99.1185 27.079 98.27 27.8645 97.1487 28.4083C96.0275 28.9823 94.6032 29.2542 92.8759 29.2542H86.9364V26.3842H92.5426C93.6335 26.3842 94.5123 26.2331 95.179 25.931C95.8457 25.5987 96.3305 25.1757 96.6639 24.5715C96.9669 23.9975 97.1184 23.3027 97.1184 22.487C97.1184 21.6713 96.9669 20.9462 96.6639 20.342C96.3305 19.7378 95.8457 19.2847 95.179 18.9523C94.5123 18.62 93.6335 18.469 92.5426 18.469H88.391V37.5621H85.0273ZM97.5427 37.5621L92.2092 27.6228H95.9366L101.391 37.5621H97.5427Z" fill="black"/>
<path d="M113.845 37.8642C111.935 37.8642 110.238 37.411 108.723 36.5047C107.238 35.5984 106.026 34.2993 105.178 32.6377C104.299 30.946 103.875 28.9218 103.875 26.5956C103.875 24.2392 104.299 22.2151 105.178 20.5233C106.026 18.8315 107.238 17.5626 108.723 16.6563C110.238 15.75 111.935 15.2968 113.845 15.2968C115.754 15.2968 117.451 15.75 118.936 16.6563C120.42 17.5626 121.602 18.8315 122.481 20.5233C123.33 22.2151 123.784 24.2392 123.784 26.5956C123.784 28.9218 123.33 30.946 122.481 32.6377C121.602 34.2993 120.42 35.5984 118.936 36.5047C117.451 37.411 115.754 37.8642 113.845 37.8642ZM113.845 34.7827C115.087 34.7827 116.208 34.4806 117.208 33.8462C118.208 33.2118 118.966 32.3054 119.542 31.0668C120.117 29.8584 120.42 28.3478 120.42 26.5956C120.42 24.8132 120.117 23.3027 119.542 22.064C118.966 20.8556 118.208 19.9191 117.208 19.2846C116.208 18.6502 115.087 18.3481 113.845 18.3481C112.572 18.3481 111.451 18.6804 110.45 19.3148C109.45 19.9191 108.663 20.8556 108.087 22.0942C107.511 23.3026 107.238 24.8132 107.238 26.5956C107.238 28.3478 107.511 29.8584 108.087 31.0668C108.663 32.2752 109.45 33.2118 110.45 33.8462C111.451 34.4806 112.572 34.7827 113.845 34.7827Z" fill="black"/>
<path d="M127.893 37.5621V15.5687H132.863L137.651 28.1968C137.802 28.5593 137.954 29.0427 138.135 29.6167C138.287 30.1907 138.469 30.7949 138.651 31.4898C138.863 32.1544 139.044 32.7888 139.196 33.4535C139.378 34.0879 139.529 34.6921 139.651 35.2057H138.923C139.075 34.7223 139.226 34.1483 139.378 33.5139C139.56 32.8492 139.741 32.2148 139.923 31.52C140.105 30.8553 140.287 30.2209 140.469 29.6469C140.62 29.0427 140.802 28.5593 140.923 28.1968L145.681 15.5687H150.651V37.5621H147.317V25.7497C147.317 25.2664 147.317 24.7226 147.317 24.1184C147.317 23.4839 147.348 22.8193 147.348 22.1245C147.378 21.3994 147.378 20.7046 147.408 19.9795C147.439 19.2544 147.439 18.5596 147.439 17.895H147.711C147.499 18.62 147.287 19.3753 147.045 20.1306C146.833 20.8858 146.59 21.6109 146.378 22.3359C146.136 23.0308 145.923 23.6954 145.742 24.2694C145.529 24.8736 145.348 25.357 145.226 25.7497L140.711 37.5621H137.802L133.256 25.7497C133.105 25.357 132.923 24.8736 132.741 24.2996C132.559 23.7256 132.347 23.0912 132.105 22.3964C131.893 21.7015 131.65 20.9462 131.408 20.191C131.196 19.4357 130.953 18.6804 130.711 17.895H131.014C131.014 18.4992 131.044 19.1638 131.044 19.8587C131.075 20.5837 131.075 21.2786 131.105 22.0036C131.105 22.7287 131.135 23.3933 131.135 24.0277C131.166 24.6924 131.166 25.2664 131.166 25.7497V37.5621H127.893Z" fill="black"/>
<path d="M153.857 37.5621L161.706 15.5687H165.858L173.827 37.5621H170.191L165.888 25.3268C165.555 24.3298 165.191 23.1818 164.797 21.8223C164.403 20.4629 163.918 18.8617 163.403 16.9886H164.1C163.585 18.8919 163.13 20.5233 162.736 21.8828C162.342 23.2423 161.979 24.3903 161.676 25.3268L157.494 37.5621H153.857ZM158.1 31.7617V28.9521H169.585V31.7617H158.1Z" fill="black"/>
<path d="M5.38725 21.0046V16.6675L30.792 4.40569V10.3492L12.101 18.7557L12.2621 18.4345V19.2376L12.101 18.9164L30.792 27.3765V33.2664L5.38725 21.0046Z" fill="white"/>
</g>
<defs>
<clipPath id="clip0_17_4">
<rect width="180" height="39" fill="white"/>
</clipPath>
</defs>
</svg>
