<svg width="130" height="28" viewBox="0 0 130 28" fill="none" xmlns="http://www.w3.org/2000/svg">
<g clip-path="url(#clip0_45_4)">
<path d="M31.9726 8.60256C31.3357 8.60256 30.7915 8.49927 30.3283 8.30418C29.8651 8.10908 29.5061 7.82218 29.2397 7.45494C28.985 7.0877 28.8344 6.65161 28.8113 6.14666H30.0967C30.1314 6.44504 30.224 6.69751 30.3977 6.89261C30.5714 7.09918 30.7915 7.24837 31.0694 7.34018C31.3473 7.44346 31.6368 7.48937 31.961 7.48937C32.32 7.48937 32.6327 7.43199 32.9106 7.31723C33.2001 7.20246 33.4201 7.05327 33.5707 6.8467C33.7328 6.64013 33.8138 6.41061 33.8138 6.14666C33.8138 5.89418 33.7444 5.69909 33.6054 5.53842C33.4664 5.38923 33.2812 5.26299 33.038 5.15971C32.7948 5.05642 32.5285 4.96461 32.2158 4.88428L31.2315 4.62033C30.5483 4.43671 30.004 4.16128 29.6219 3.80552C29.2282 3.43828 29.0429 2.97924 29.0429 2.40543C29.0429 1.92343 29.1703 1.49881 29.4366 1.14305C29.6914 0.787291 30.0503 0.500387 30.502 0.305292C30.9536 0.0987211 31.4631 0.00691223 32.0305 0.00691223C32.5979 0.00691223 33.1075 0.0987211 33.5475 0.305292C33.9875 0.500387 34.3349 0.775815 34.5781 1.1201C34.8329 1.47586 34.9718 1.86605 34.9834 2.31362H33.7212C33.6749 1.93491 33.5012 1.63653 33.1885 1.42996C32.8759 1.21191 32.4706 1.10862 31.9958 1.10862C31.66 1.10862 31.3589 1.166 31.1157 1.26929C30.8609 1.37258 30.6641 1.52177 30.5367 1.70538C30.3977 1.889 30.3283 2.09557 30.3283 2.33657C30.3283 2.60052 30.4093 2.8071 30.5714 2.97924C30.7336 3.1399 30.9304 3.26614 31.1736 3.35795C31.4052 3.46124 31.6368 3.53009 31.8452 3.58747L32.6674 3.80552C32.9338 3.87438 33.2117 3.95471 33.4896 4.06947C33.7791 4.18423 34.0339 4.33342 34.277 4.51704C34.5202 4.70066 34.7171 4.91871 34.8676 5.19414C35.0182 5.45809 35.0876 5.77942 35.0876 6.15813C35.0876 6.62866 34.9718 7.05327 34.7287 7.42051C34.4739 7.78775 34.1265 8.07465 33.6633 8.2927C33.1885 8.49927 32.6327 8.60256 31.9726 8.60256Z" fill="black"/>
<path d="M35.9229 8.46482L38.9221 0.110176H40.5085L43.5541 8.46482H42.1645L40.5201 3.81698C40.3927 3.43826 40.2538 3.00217 40.1032 2.48574C39.9527 1.96931 39.7674 1.36108 39.5706 0.649556H39.8369C39.64 1.37255 39.4663 1.99227 39.3158 2.50869C39.1653 3.02512 39.0263 3.46122 38.9105 3.81698L37.3125 8.46482H35.9229ZM37.5441 6.2614V5.19412H41.9329V6.2614H37.5441Z" fill="black"/>
<path d="M44.7795 8.46482V0.110176H46.0649V7.36311H49.8747V8.46482H44.7795Z" fill="black"/>
<path d="M52.9044 8.46482L49.8589 0.110176H51.2485L52.8928 4.75802C53.0086 5.12526 53.1476 5.56135 53.3097 6.07778C53.4603 6.59421 53.634 7.21392 53.8308 7.91397H53.5761C53.7729 7.19097 53.9466 6.58273 54.0972 6.0663C54.2477 5.54988 54.3867 5.12526 54.5025 4.75802L56.0889 0.110176H57.4901L54.4793 8.46482H52.9044Z" fill="black"/>
<path d="M57.2361 8.46482L60.2353 0.110176H61.8218L64.8673 8.46482H63.4777L61.8333 3.81698C61.706 3.43826 61.567 3.00217 61.4165 2.48574C61.2659 1.96931 61.0806 1.36108 60.8838 0.649556H61.1501C60.9533 1.37255 60.7796 1.99227 60.629 2.50869C60.4785 3.02512 60.3395 3.46122 60.2237 3.81698L58.6257 8.46482H57.2361ZM58.8573 6.2614V5.19412H63.2461V6.2614H58.8573Z" fill="black"/>
<path d="M64.6636 1.21189V0.110176H71.2063V1.21189H68.5892V8.46482H67.2922V1.21189H64.6636Z" fill="black"/>
<path d="M75.8108 8.5796C75.0813 8.5796 74.4328 8.40746 73.8538 8.06318C73.2864 7.71889 72.8232 7.22542 72.4989 6.59423C72.1631 5.95156 72.001 5.18266 72.001 4.299C72.001 3.40386 72.1631 2.63495 72.4989 1.99229C72.8232 1.34962 73.2864 0.867624 73.8538 0.52334C74.4328 0.179055 75.0813 0.00691223 75.8108 0.00691223C76.5403 0.00691223 77.1888 0.179055 77.7562 0.52334C78.3237 0.867624 78.7753 1.34962 79.1111 1.99229C79.4353 2.63495 79.609 3.40386 79.609 4.299C79.609 5.18266 79.4353 5.95156 79.1111 6.59423C78.7753 7.22542 78.3237 7.71889 77.7562 8.06318C77.1888 8.40746 76.5403 8.5796 75.8108 8.5796ZM75.8108 7.40904C76.2856 7.40904 76.714 7.29427 77.0962 7.05327C77.4783 6.81228 77.7678 6.46799 77.9878 5.99747C78.2079 5.53842 78.3237 4.96461 78.3237 4.299C78.3237 3.6219 78.2079 3.04809 77.9878 2.57757C77.7678 2.11853 77.4783 1.76276 77.0962 1.52177C76.714 1.28077 76.2856 1.166 75.8108 1.166C75.3244 1.166 74.896 1.29224 74.5138 1.53324C74.1317 1.76277 73.8306 2.11853 73.6106 2.58905C73.3906 3.04809 73.2864 3.6219 73.2864 4.299C73.2864 4.96461 73.3906 5.53842 73.6106 5.99747C73.8306 6.45651 74.1317 6.81228 74.5138 7.05327C74.896 7.29427 75.3244 7.40904 75.8108 7.40904Z" fill="black"/>
<path d="M81.179 8.46482V0.110176H84.1898C84.8382 0.110176 85.3825 0.224937 85.811 0.454461C86.251 0.672508 86.5752 0.982364 86.7837 1.37255C87.0037 1.77422 87.1079 2.22179 87.1079 2.73822C87.1079 3.25464 87.0037 3.70221 86.7837 4.0924C86.5637 4.48259 86.2394 4.78097 85.811 4.98754C85.3825 5.20559 84.8382 5.30888 84.1782 5.30888H81.9085V4.21864H84.0508C84.4677 4.21864 84.8035 4.16126 85.0583 4.0465C85.313 3.92026 85.4983 3.75959 85.6257 3.53007C85.7415 3.31202 85.7994 3.04807 85.7994 2.73822C85.7994 2.42836 85.7415 2.15293 85.6257 1.92341C85.4983 1.69389 85.313 1.52174 85.0583 1.39551C84.8035 1.26927 84.4677 1.21189 84.0508 1.21189H82.4643V8.46482H81.179ZM85.9615 8.46482L83.9234 4.68916H85.3478L87.4322 8.46482H85.9615Z" fill="black"/>
<path d="M88.6821 8.46482V0.110176H93.9742V1.21189H89.9675V3.70221H93.6963V4.79245H89.9675V7.36311H94.0205V8.46482H88.6821Z" fill="black"/>
<path d="M26.1108 0.00012207H-0.000244141V27.0322H26.1108V0.00012207Z" fill="black"/>
<path d="M33.7112 26.9677H29.7718V24.8638H33.5799C34.7836 24.8638 35.7904 24.6252 36.5783 24.1914C37.3881 23.7359 37.979 23.0852 38.3729 22.2176C38.7669 21.35 38.9858 20.3089 38.9858 19.0509C38.9858 17.8146 38.7669 16.7735 38.3729 15.9276C37.979 15.06 37.3881 14.4093 36.6221 13.9755C35.8342 13.52 34.8712 13.3032 33.7112 13.3032H29.6842V11.1776H33.8644C35.4402 11.1776 36.7753 11.5029 37.8915 12.1319C39.0076 12.7609 39.8612 13.6719 40.474 14.8431C41.0649 16.0144 41.3713 17.4242 41.3713 19.0509C41.3713 20.6993 41.0649 22.1092 40.474 23.3021C39.8612 24.4734 38.9858 25.3843 37.8477 26.0133C36.7096 26.6423 35.3308 26.9677 33.7112 26.9677ZM30.9755 11.1776V26.9677H28.5461V11.1776H30.9755Z" fill="black"/>
<path d="M44.3447 26.9677V11.1776H54.3466V13.2598H46.7741V17.9664H53.8214V20.027H46.7741V24.8855H54.4342V26.9677H44.3447Z" fill="black"/>
<path d="M61.4084 26.9677V11.1776H67.0988C68.3244 11.1776 69.3531 11.3945 70.1628 11.8282C70.9945 12.2404 71.6073 12.826 72.0013 13.5634C72.4171 14.3226 72.6141 15.1685 72.6141 16.1445C72.6141 17.1205 72.4171 17.9664 72.0013 18.7039C71.5854 19.4413 70.9726 20.0053 70.1628 20.3957C69.3531 20.8078 68.3244 21.003 67.0769 21.003H62.7873V18.9425H66.8362C67.6241 18.9425 68.2588 18.834 68.7403 18.6171C69.2217 18.3785 69.5719 18.0749 69.8127 17.6411C70.0315 17.229 70.141 16.7301 70.141 16.1445C70.141 15.5589 70.0315 15.0383 69.8127 14.6045C69.5719 14.1707 69.2217 13.8454 68.7403 13.6068C68.2588 13.3682 67.6241 13.2598 66.8362 13.2598H63.8378V26.9677H61.4084ZM70.4474 26.9677L66.5954 19.8318H69.2874L73.2269 26.9677H70.4474Z" fill="black"/>
<path d="M82.221 27.1845C80.8422 27.1845 79.6166 26.8592 78.5223 26.2085C77.4499 25.5578 76.5744 24.6252 75.9616 23.4322C75.3269 22.2176 75.0205 20.7644 75.0205 19.0943C75.0205 17.4025 75.3269 15.9493 75.9616 14.7347C76.5744 13.52 77.4499 12.6091 78.5223 11.9584C79.6166 11.3077 80.8422 10.9823 82.221 10.9823C83.5998 10.9823 84.8254 11.3077 85.8978 11.9584C86.9703 12.6091 87.8238 13.52 88.4585 14.7347C89.0713 15.9493 89.3996 17.4025 89.3996 19.0943C89.3996 20.7644 89.0713 22.2176 88.4585 23.4322C87.8238 24.6252 86.9703 25.5578 85.8978 26.2085C84.8254 26.8592 83.5998 27.1845 82.221 27.1845ZM82.221 24.9722C83.1183 24.9722 83.9281 24.7553 84.6503 24.2998C85.3726 23.8443 85.9197 23.1936 86.3356 22.3044C86.7514 21.4368 86.9703 20.3523 86.9703 19.0943C86.9703 17.8146 86.7514 16.7301 86.3356 15.8408C85.9197 14.9732 85.3726 14.3009 84.6503 13.8454C83.9281 13.3899 83.1183 13.173 82.221 13.173C81.3018 13.173 80.492 13.4116 79.7698 13.8671C79.0475 14.3009 78.4785 14.9732 78.0627 15.8625C77.6468 16.7301 77.4499 17.8146 77.4499 19.0943C77.4499 20.3523 77.6468 21.4368 78.0627 22.3044C78.4785 23.172 79.0475 23.8443 79.7698 24.2998C80.492 24.7553 81.3018 24.9722 82.221 24.9722Z" fill="black"/>
<path d="M92.3669 26.9677V11.1776H95.9562L99.4142 20.2439C99.5237 20.5041 99.6331 20.8512 99.7644 21.2633C99.8738 21.6754 100.005 22.1092 100.136 22.608C100.29 23.0852 100.421 23.5407 100.53 24.0179C100.662 24.4734 100.771 24.9071 100.859 25.2759H100.333C100.443 24.9288 100.552 24.5167 100.662 24.0612C100.793 23.5841 100.924 23.1286 101.056 22.6297C101.187 22.1526 101.318 21.6971 101.45 21.285C101.559 20.8512 101.69 20.5041 101.778 20.2439L105.214 11.1776H108.803V26.9677H106.396V18.487C106.396 18.14 106.396 17.7495 106.396 17.3157C106.396 16.8603 106.418 16.3831 106.418 15.8842C106.44 15.3637 106.44 14.8648 106.462 14.3443C106.483 13.8237 106.483 13.3248 106.483 12.8477H106.68C106.527 13.3682 106.374 13.9105 106.199 14.4527C106.046 14.9949 105.871 15.5155 105.717 16.0361C105.542 16.5349 105.389 17.0121 105.258 17.4242C105.105 17.858 104.973 18.205 104.886 18.487L101.625 26.9677H99.5237L96.2408 18.487C96.1313 18.205 96 17.858 95.8687 17.4459C95.7374 17.0338 95.5842 16.5783 95.4091 16.0794C95.2559 15.5806 95.0808 15.0383 94.9057 14.4961C94.7525 13.9538 94.5774 13.4116 94.4023 12.8477H94.6212C94.6212 13.2815 94.6431 13.7586 94.6431 14.2575C94.665 14.7781 94.665 15.2769 94.6869 15.7975C94.6869 16.318 94.7087 16.7952 94.7087 17.2507C94.7306 17.7279 94.7306 18.14 94.7306 18.487V26.9677H92.3669Z" fill="black"/>
<path d="M111.119 26.9677L116.788 11.1776H119.786L125.542 26.9677H122.916L119.808 18.1833C119.567 17.4676 119.304 16.6434 119.02 15.6673C118.735 14.6913 118.385 13.5417 118.013 12.197H118.517C118.145 13.5634 117.816 14.7347 117.532 15.7107C117.247 16.6867 116.985 17.511 116.766 18.1833L113.745 26.9677H111.119ZM114.183 22.8032V20.7861H122.478V22.8032H114.183Z" fill="black"/>
<path d="M3.89062 15.0803V11.9664L22.2385 3.16306V7.43018L8.73942 13.4657L8.8558 13.235V13.8116L8.73942 13.581L22.2385 19.6549V23.8836L3.89062 15.0803Z" fill="white"/>
</g>
<defs>
<clipPath id="clip0_45_4">
<rect width="130" height="28" fill="white"/>
</clipPath>
</defs>
</svg>
