<?xml version="1.0" encoding="UTF-8" standalone="no"?>
<!DOCTYPE svg PUBLIC "-//W3C//DTD SVG 1.1//EN" "http://www.w3.org/Graphics/SVG/1.1/DTD/svg11.dtd">
<svg width="100%" height="100%" viewBox="0 0 1077 236" version="1.1" xmlns="http://www.w3.org/2000/svg" xmlns:xlink="http://www.w3.org/1999/xlink" xml:space="preserve" xmlns:serif="http://www.serif.com/" style="fill-rule:evenodd;clip-rule:evenodd;stroke-linejoin:round;stroke-miterlimit:2;">
    <g transform="matrix(1,0,0,1,-492,-1217)">
        <g>
            <g transform="matrix(1.986838,0,0,1.986838,-1926.376483,-593.996529)">
                <g transform="matrix(50,0,0,50,1339,948.376953)">
                    <path d="M0.325,0.012C0.27,0.012 0.223,0.003 0.183,-0.014C0.143,-0.031 0.112,-0.056 0.089,-0.088C0.067,-0.12 0.054,-0.158 0.052,-0.202L0.163,-0.202C0.166,-0.176 0.174,-0.154 0.189,-0.137C0.204,-0.119 0.223,-0.106 0.247,-0.098C0.271,-0.089 0.296,-0.085 0.324,-0.085C0.355,-0.085 0.382,-0.09 0.406,-0.1C0.431,-0.11 0.45,-0.123 0.463,-0.141C0.477,-0.159 0.484,-0.179 0.484,-0.202C0.484,-0.224 0.478,-0.241 0.466,-0.255C0.454,-0.268 0.438,-0.279 0.417,-0.288C0.396,-0.297 0.373,-0.305 0.346,-0.312L0.261,-0.335C0.202,-0.351 0.155,-0.375 0.122,-0.406C0.088,-0.438 0.072,-0.478 0.072,-0.528C0.072,-0.57 0.083,-0.607 0.106,-0.638C0.128,-0.669 0.159,-0.694 0.198,-0.711C0.237,-0.729 0.281,-0.737 0.33,-0.737C0.379,-0.737 0.423,-0.729 0.461,-0.711C0.499,-0.694 0.529,-0.67 0.55,-0.64C0.572,-0.609 0.584,-0.575 0.585,-0.536L0.476,-0.536C0.472,-0.569 0.457,-0.595 0.43,-0.613C0.403,-0.632 0.368,-0.641 0.327,-0.641C0.298,-0.641 0.272,-0.636 0.251,-0.627C0.229,-0.618 0.212,-0.605 0.201,-0.589C0.189,-0.573 0.183,-0.555 0.183,-0.534C0.183,-0.511 0.19,-0.493 0.204,-0.478C0.218,-0.464 0.235,-0.453 0.256,-0.445C0.276,-0.436 0.296,-0.43 0.314,-0.425L0.385,-0.406C0.408,-0.4 0.432,-0.393 0.456,-0.383C0.481,-0.373 0.503,-0.36 0.524,-0.344C0.545,-0.328 0.562,-0.309 0.575,-0.285C0.588,-0.262 0.594,-0.234 0.594,-0.201C0.594,-0.16 0.584,-0.123 0.563,-0.091C0.541,-0.059 0.511,-0.034 0.471,-0.015C0.43,0.003 0.382,0.012 0.325,0.012Z" style="fill-rule:nonzero;"/>
                </g>
                <g transform="matrix(50,0,0,50,1371.055655,948.376953)">
                    <path d="M0.025,-0L0.284,-0.728L0.421,-0.728L0.684,-0L0.564,-0L0.422,-0.405C0.411,-0.438 0.399,-0.476 0.386,-0.521C0.373,-0.566 0.357,-0.619 0.34,-0.681L0.363,-0.681C0.346,-0.618 0.331,-0.564 0.318,-0.519C0.305,-0.474 0.293,-0.436 0.283,-0.405L0.145,-0L0.025,-0ZM0.165,-0.192L0.165,-0.285L0.544,-0.285L0.544,-0.192L0.165,-0.192Z" style="fill-rule:nonzero;"/>
                </g>
                <g transform="matrix(50,0,0,50,1406.497511,948.376953)">
                    <path d="M0.081,-0L0.081,-0.728L0.192,-0.728L0.192,-0.096L0.521,-0.096L0.521,-0L0.081,-0Z" style="fill-rule:nonzero;"/>
                </g>
                <g transform="matrix(50,0,0,50,1431.228957,948.376953)">
                    <path d="M0.288,-0L0.025,-0.728L0.145,-0.728L0.287,-0.323C0.297,-0.291 0.309,-0.253 0.323,-0.208C0.336,-0.163 0.351,-0.109 0.368,-0.048L0.346,-0.048C0.363,-0.111 0.378,-0.164 0.391,-0.209C0.404,-0.254 0.416,-0.291 0.426,-0.323L0.563,-0.728L0.684,-0.728L0.424,-0L0.288,-0Z" style="fill-rule:nonzero;"/>
                </g>
                <g transform="matrix(50,0,0,50,1463.081945,948.376953)">
                    <path d="M0.025,-0L0.284,-0.728L0.421,-0.728L0.684,-0L0.564,-0L0.422,-0.405C0.411,-0.438 0.399,-0.476 0.386,-0.521C0.373,-0.566 0.357,-0.619 0.34,-0.681L0.363,-0.681C0.346,-0.618 0.331,-0.564 0.318,-0.519C0.305,-0.474 0.293,-0.436 0.283,-0.405L0.145,-0L0.025,-0ZM0.165,-0.192L0.165,-0.285L0.544,-0.285L0.544,-0.192L0.165,-0.192Z" style="fill-rule:nonzero;"/>
                </g>
                <g transform="matrix(50,0,0,50,1494.202512,948.376953)">
                    <path d="M0.044,-0.632L0.044,-0.728L0.609,-0.728L0.609,-0.632L0.383,-0.632L0.383,-0L0.271,-0L0.271,-0.632L0.044,-0.632Z" style="fill-rule:nonzero;"/>
                </g>
                <g transform="matrix(50,0,0,50,1525.333357,948.376953)">
                    <path d="M0.384,0.01C0.321,0.01 0.265,-0.005 0.215,-0.035C0.166,-0.065 0.126,-0.108 0.098,-0.163C0.069,-0.219 0.055,-0.286 0.055,-0.363C0.055,-0.441 0.069,-0.508 0.098,-0.564C0.126,-0.62 0.166,-0.662 0.215,-0.692C0.265,-0.722 0.321,-0.737 0.384,-0.737C0.447,-0.737 0.503,-0.722 0.552,-0.692C0.601,-0.662 0.64,-0.62 0.669,-0.564C0.697,-0.508 0.712,-0.441 0.712,-0.363C0.712,-0.286 0.697,-0.219 0.669,-0.163C0.64,-0.108 0.601,-0.065 0.552,-0.035C0.503,-0.005 0.447,0.01 0.384,0.01ZM0.384,-0.092C0.425,-0.092 0.462,-0.102 0.495,-0.123C0.528,-0.144 0.553,-0.174 0.572,-0.215C0.591,-0.255 0.601,-0.305 0.601,-0.363C0.601,-0.422 0.591,-0.472 0.572,-0.513C0.553,-0.553 0.528,-0.584 0.495,-0.605C0.462,-0.626 0.425,-0.636 0.384,-0.636C0.342,-0.636 0.305,-0.625 0.272,-0.604C0.239,-0.584 0.213,-0.553 0.194,-0.512C0.175,-0.472 0.166,-0.422 0.166,-0.363C0.166,-0.305 0.175,-0.255 0.194,-0.215C0.213,-0.175 0.239,-0.144 0.272,-0.123C0.305,-0.102 0.342,-0.092 0.384,-0.092Z" style="fill-rule:nonzero;"/>
                </g>
                <g transform="matrix(50,0,0,50,1563.662454,948.376953)">
                    <path d="M0.081,-0L0.081,-0.728L0.341,-0.728C0.397,-0.728 0.444,-0.718 0.481,-0.698C0.519,-0.679 0.547,-0.652 0.565,-0.618C0.584,-0.583 0.593,-0.544 0.593,-0.499C0.593,-0.454 0.584,-0.415 0.565,-0.381C0.546,-0.347 0.518,-0.321 0.481,-0.303C0.444,-0.284 0.397,-0.275 0.34,-0.275L0.144,-0.275L0.144,-0.37L0.329,-0.37C0.365,-0.37 0.394,-0.375 0.416,-0.385C0.438,-0.396 0.454,-0.41 0.465,-0.43C0.475,-0.449 0.48,-0.472 0.48,-0.499C0.48,-0.526 0.475,-0.55 0.465,-0.57C0.454,-0.59 0.438,-0.605 0.416,-0.616C0.394,-0.627 0.365,-0.632 0.329,-0.632L0.192,-0.632L0.192,-0L0.081,-0ZM0.494,-0L0.318,-0.329L0.441,-0.329L0.621,-0L0.494,-0Z" style="fill-rule:nonzero;"/>
                </g>
                <g transform="matrix(50,0,0,50,1596.059906,948.376953)">
                    <path d="M0.081,-0L0.081,-0.728L0.538,-0.728L0.538,-0.632L0.192,-0.632L0.192,-0.415L0.514,-0.415L0.514,-0.32L0.192,-0.32L0.192,-0.096L0.542,-0.096L0.542,-0L0.081,-0Z" style="fill-rule:nonzero;"/>
                </g>
                <g transform="matrix(50,0,0,50,1626.219082,948.376953)">
                </g>
            </g>
            <g transform="matrix(0.52093,0,0,0.932271,115.888372,71.239044)">
                <rect x="722" y="1229" width="430" height="251" style="fill:rgb(88,89,91);"/>
            </g>
            <g transform="matrix(1.318529,0,0,1.318529,-1029.323488,-725.13066)">
                <g transform="matrix(142.396728,0,0,142.396728,1328,1650)">
                    <path d="M0.317,-0L0.137,-0L0.137,-0.097L0.311,-0.097C0.366,-0.097 0.412,-0.108 0.448,-0.128C0.485,-0.149 0.512,-0.179 0.53,-0.219C0.548,-0.259 0.558,-0.307 0.558,-0.365C0.558,-0.422 0.548,-0.47 0.53,-0.509C0.512,-0.549 0.485,-0.579 0.45,-0.599C0.414,-0.62 0.37,-0.63 0.317,-0.63L0.133,-0.63L0.133,-0.728L0.324,-0.728C0.396,-0.728 0.457,-0.713 0.508,-0.684C0.559,-0.655 0.598,-0.613 0.626,-0.559C0.653,-0.505 0.667,-0.44 0.667,-0.365C0.667,-0.289 0.653,-0.224 0.626,-0.169C0.598,-0.115 0.558,-0.073 0.506,-0.044C0.454,-0.015 0.391,-0 0.317,-0ZM0.192,-0.728L0.192,-0L0.081,-0L0.081,-0.728L0.192,-0.728Z" style="fill-rule:nonzero;"/>
                </g>
                <g transform="matrix(142.396728,0,0,142.396728,1430.789856,1650)">
                    <path d="M0.081,-0L0.081,-0.728L0.538,-0.728L0.538,-0.632L0.192,-0.632L0.192,-0.415L0.514,-0.415L0.514,-0.32L0.192,-0.32L0.192,-0.096L0.542,-0.096L0.542,-0L0.081,-0Z" style="fill-rule:nonzero;"/>
                </g>
                <g transform="matrix(142.396728,0,0,142.396728,1516.681214,1650)">
                </g>
                <g transform="matrix(142.396728,0,0,142.396728,1541.812097,1650)">
                    <path d="M0.081,-0L0.081,-0.728L0.341,-0.728C0.397,-0.728 0.444,-0.718 0.481,-0.698C0.519,-0.679 0.547,-0.652 0.565,-0.618C0.584,-0.583 0.593,-0.544 0.593,-0.499C0.593,-0.454 0.584,-0.415 0.565,-0.381C0.546,-0.347 0.518,-0.321 0.481,-0.303C0.444,-0.284 0.397,-0.275 0.34,-0.275L0.144,-0.275L0.144,-0.37L0.329,-0.37C0.365,-0.37 0.394,-0.375 0.416,-0.385C0.438,-0.396 0.454,-0.41 0.465,-0.43C0.475,-0.449 0.48,-0.472 0.48,-0.499C0.48,-0.526 0.475,-0.55 0.465,-0.57C0.454,-0.59 0.438,-0.605 0.416,-0.616C0.394,-0.627 0.365,-0.632 0.329,-0.632L0.192,-0.632L0.192,-0L0.081,-0ZM0.494,-0L0.318,-0.329L0.441,-0.329L0.621,-0L0.494,-0Z" style="fill-rule:nonzero;"/>
                </g>
                <g transform="matrix(142.396728,0,0,142.396728,1634.07792,1650)">
                    <path d="M0.384,0.01C0.321,0.01 0.265,-0.005 0.215,-0.035C0.166,-0.065 0.126,-0.108 0.098,-0.163C0.069,-0.219 0.055,-0.286 0.055,-0.363C0.055,-0.441 0.069,-0.508 0.098,-0.564C0.126,-0.62 0.166,-0.662 0.215,-0.692C0.265,-0.722 0.321,-0.737 0.384,-0.737C0.447,-0.737 0.503,-0.722 0.552,-0.692C0.601,-0.662 0.64,-0.62 0.669,-0.564C0.697,-0.508 0.712,-0.441 0.712,-0.363C0.712,-0.286 0.697,-0.219 0.669,-0.163C0.64,-0.108 0.601,-0.065 0.552,-0.035C0.503,-0.005 0.447,0.01 0.384,0.01ZM0.384,-0.092C0.425,-0.092 0.462,-0.102 0.495,-0.123C0.528,-0.144 0.553,-0.174 0.572,-0.215C0.591,-0.255 0.601,-0.305 0.601,-0.363C0.601,-0.422 0.591,-0.472 0.572,-0.513C0.553,-0.553 0.528,-0.584 0.495,-0.605C0.462,-0.626 0.425,-0.636 0.384,-0.636C0.342,-0.636 0.305,-0.625 0.272,-0.604C0.239,-0.584 0.213,-0.553 0.194,-0.512C0.175,-0.472 0.166,-0.422 0.166,-0.363C0.166,-0.305 0.175,-0.255 0.194,-0.215C0.213,-0.175 0.239,-0.144 0.272,-0.123C0.305,-0.102 0.342,-0.092 0.384,-0.092Z" style="fill-rule:nonzero;"/>
                </g>
                <g transform="matrix(142.396728,0,0,142.396728,1743.236682,1650)">
                    <path d="M0.081,-0L0.081,-0.728L0.245,-0.728L0.403,-0.31C0.408,-0.298 0.413,-0.282 0.419,-0.263C0.424,-0.244 0.43,-0.224 0.436,-0.201C0.443,-0.179 0.449,-0.158 0.454,-0.136C0.46,-0.115 0.465,-0.095 0.469,-0.078L0.445,-0.078C0.45,-0.094 0.455,-0.113 0.46,-0.134C0.466,-0.156 0.472,-0.177 0.478,-0.2C0.484,-0.222 0.49,-0.243 0.496,-0.262C0.501,-0.282 0.507,-0.298 0.511,-0.31L0.668,-0.728L0.832,-0.728L0.832,-0L0.722,-0L0.722,-0.391C0.722,-0.407 0.722,-0.425 0.722,-0.445C0.722,-0.466 0.723,-0.488 0.723,-0.511C0.724,-0.535 0.724,-0.558 0.725,-0.582C0.726,-0.606 0.726,-0.629 0.726,-0.651L0.735,-0.651C0.728,-0.627 0.721,-0.602 0.713,-0.577C0.706,-0.552 0.698,-0.528 0.691,-0.504C0.683,-0.481 0.676,-0.459 0.67,-0.44C0.663,-0.42 0.657,-0.404 0.653,-0.391L0.504,-0L0.408,-0L0.258,-0.391C0.253,-0.404 0.247,-0.42 0.241,-0.439C0.235,-0.458 0.228,-0.479 0.22,-0.502C0.213,-0.525 0.205,-0.55 0.197,-0.575C0.19,-0.6 0.182,-0.625 0.174,-0.651L0.184,-0.651C0.184,-0.631 0.185,-0.609 0.185,-0.586C0.186,-0.562 0.186,-0.539 0.187,-0.515C0.187,-0.491 0.188,-0.469 0.188,-0.448C0.189,-0.426 0.189,-0.407 0.189,-0.391L0.189,-0L0.081,-0Z" style="fill-rule:nonzero;"/>
                </g>
                <g transform="matrix(142.396728,0,0,142.396728,1873.21814,1650)">
                    <path d="M0.025,-0L0.284,-0.728L0.421,-0.728L0.684,-0L0.564,-0L0.422,-0.405C0.411,-0.438 0.399,-0.476 0.386,-0.521C0.373,-0.566 0.357,-0.619 0.34,-0.681L0.363,-0.681C0.346,-0.618 0.331,-0.564 0.318,-0.519C0.305,-0.474 0.293,-0.436 0.283,-0.405L0.145,-0L0.025,-0ZM0.165,-0.192L0.165,-0.285L0.544,-0.285L0.544,-0.192L0.165,-0.192Z" style="fill-rule:nonzero;"/>
                </g>
                <g transform="matrix(142.396728,0,0,142.396728,1974.154227,1650)">
                </g>
            </g>
            <g transform="matrix(2.262666,0,0,2.262666,-744.778473,-2523.475018)">
                <g transform="matrix(147.071141,0,0,147.071141,549,1747)">
                    <path d="M0.084,-0.246L0.084,-0.327L0.557,-0.556L0.557,-0.445L0.209,-0.288L0.212,-0.294L0.212,-0.279L0.209,-0.285L0.557,-0.127L0.557,-0.017L0.084,-0.246Z" style="fill:white;fill-rule:nonzero;"/>
                </g>
                <g transform="matrix(147.071141,0,0,147.071141,647.145536,1747)">
                </g>
            </g>
        </g>
    </g>
</svg>
