<svg width="200" height="49" viewBox="0 0 200 49" fill="none" xmlns="http://www.w3.org/2000/svg">
<path d="M57.0909 26.138V21.824C57.0909 16.7064 60.4791 13.3968 65.572 13.3968C67.7108 13.3968 69.4472 13.9995 70.6543 15.1309V7.43329C70.6543 6.22789 71.4166 5.45602 72.6342 5.45602H73.5236C74.7307 5.45602 75.5036 6.21732 75.5036 7.43329V28.7497L77.3142 30.5578C78.0765 31.3191 78.1612 32.2919 77.3989 33.0532L76.5942 33.8568C75.8318 34.6181 74.8577 34.5441 74.0954 33.7722L72.0413 31.7209C70.7919 33.5713 68.6531 34.5441 65.7414 34.5441C60.532 34.5441 57.1015 31.2345 57.1015 26.1169L57.0909 26.138ZM70.6437 26.5821V21.3799C70.6437 18.7154 69.1507 17.2245 66.3237 17.2245C63.4967 17.2245 62.0038 18.7154 62.0038 21.3799V26.5821C62.0038 29.2467 63.4967 30.7376 66.3237 30.7376C69.1507 30.7376 70.6437 29.2467 70.6437 26.5821Z" fill="white"/>
<path d="M80.8612 26.783V21.4222C80.8612 16.22 84.0058 13.4074 89.861 13.4074C95.7162 13.4074 98.7021 16.0297 98.7021 21.105V24.0022C98.7021 25.1336 98.1727 25.694 97.0503 25.694H85.6682V27.2694C85.6682 29.8071 87.0446 30.8962 90.2316 30.8962C92.6139 30.8962 93.821 30.2089 93.821 28.8449V28.718C93.821 28.2739 93.9798 28.1153 94.4668 28.1153H97.7703C98.1727 28.1153 98.4162 28.3585 98.4162 28.7603V28.9189C98.4162 32.6726 95.6315 34.5652 90.1787 34.5652C84.0376 34.5652 80.8506 31.9007 80.8506 26.783H80.8612ZM85.6682 20.6186V22.1095H94.0645V20.6186C94.0645 18.2395 92.5716 16.9919 89.8293 16.9919C87.087 16.9919 85.6682 18.2395 85.6682 20.6186Z" fill="white"/>
<path d="M108.92 32.7148V19.2123L107.109 17.4042C106.347 16.6429 106.262 15.6701 107.024 14.9088L107.829 14.1053C108.591 13.3439 109.565 13.418 110.328 14.1898L112.625 16.4843C113.631 14.7079 115.209 13.7035 117.231 13.7035H117.718C119.571 13.7035 120.545 14.4648 120.545 15.8816V16.2834C120.545 17.5311 119.656 18.303 118.29 18.303H117.729C115.103 18.303 113.769 19.7093 113.769 22.5324V32.7254C113.769 33.5713 113.208 34.1317 112.35 34.1317H110.338C109.491 34.1317 108.92 33.5713 108.92 32.7254V32.7148Z" fill="white"/>
<path d="M122.282 26.3072V21.676C122.282 16.3574 125.628 13.418 131.61 13.418C137.592 13.418 140.97 16.3574 140.97 21.676V26.3072C140.97 31.6258 137.624 34.5652 131.652 34.5652C125.681 34.5652 122.292 31.6258 122.292 26.3072H122.282ZM136.046 26.783V21.179C136.046 18.599 134.511 17.2245 131.61 17.2245C128.709 17.2245 127.205 18.599 127.205 21.179V26.783C127.205 29.363 128.74 30.7376 131.642 30.7376C134.543 30.7376 136.036 29.363 136.036 26.783H136.046Z" fill="white"/>
<path d="M146.338 32.7148V19.2123L144.527 17.4042C143.765 16.6429 143.68 15.6701 144.443 14.9088L145.247 14.1052C146.01 13.3439 146.984 13.418 147.746 14.1898L149.726 16.2411C150.901 14.3907 152.913 13.418 155.539 13.418C158.44 13.418 160.78 14.4648 162.156 16.3997C163.363 14.4648 165.428 13.418 168.17 13.418C173.052 13.418 176.281 16.2834 176.281 21.4011V32.7254C176.281 33.5713 175.72 34.1317 174.873 34.1317H172.85C172.003 34.1317 171.442 33.5713 171.442 32.7254V21.4011C171.442 18.7788 170.108 17.3725 167.609 17.3725C165.111 17.3725 163.734 18.7471 163.734 21.4011V32.7254C163.734 33.5713 163.173 34.1317 162.326 34.1317H160.304C159.456 34.1317 158.895 33.5713 158.895 32.7254V21.4011C158.895 18.7788 157.561 17.3725 155.062 17.3725C152.564 17.3725 151.187 18.7471 151.187 21.4011V32.7254C151.187 33.5713 150.626 34.1317 149.768 34.1317H147.757C146.91 34.1317 146.338 33.5713 146.338 32.7254V32.7148Z" fill="white"/>
<path d="M180.294 28.5594V28.2316C180.294 24.0762 182.92 22.1412 188.489 22.1412C189.897 22.1412 191.358 22.2998 192.767 22.6276V19.6881C192.767 17.9541 191.634 17.1505 189.177 17.1505C186.721 17.1505 185.747 17.7532 185.747 19.2017V19.4026C185.747 19.963 185.461 20.2485 184.9 20.2485H181.999C181.437 20.2485 181.109 19.9207 181.109 19.3603V19.1594C181.109 15.4904 184.01 13.3968 189.135 13.3968C194.704 13.3968 197.574 15.6173 197.574 20.0053V28.7497L199.384 30.5578C200.146 31.3191 200.231 32.2919 199.469 33.0532L198.664 33.8568C197.902 34.6181 196.928 34.5441 196.165 33.7722L194.143 31.7632C192.809 33.4973 190.596 34.5441 187.928 34.5441C183.121 34.5441 180.304 32.3236 180.304 28.5383L180.294 28.5594ZM188.722 30.8962C191.062 30.8962 192.756 29.5639 192.756 27.7135V25.8631C191.464 25.5036 190.215 25.3344 188.881 25.3344C186.297 25.3344 185.006 26.2226 185.006 27.999V28.3162C185.006 30.0503 186.255 30.8962 188.722 30.8962Z" fill="white"/>
<path d="M43.9935 0H4.8811C2.18114 0 0 2.17817 0 4.87445V43.9334C0 46.6297 2.18114 48.8079 4.8811 48.8079H43.9935C46.6934 48.8079 48.8746 46.6297 48.8746 43.9334V4.87445C48.8746 2.17817 46.6934 0 43.9935 0ZM36.4759 34.6921C38.1065 35.7177 38.6465 37.621 37.4924 39.3762C36.4018 41.068 34.5065 41.4804 32.8019 40.3913L13.6269 28.3056C11.721 27.1531 10.7681 26.138 10.7681 24.4357V24.3722C10.7681 22.6064 11.721 21.6548 13.6269 20.5023L32.8019 8.42719C34.496 7.3381 36.4018 7.75047 37.4924 9.44226C38.6465 11.2081 38.1065 13.1113 36.4759 14.1264L19.6832 24.3828L36.4759 34.6921Z" fill="white"/>
<path d="M56.4663 45.7096V45.329C56.4663 45.1598 56.551 45.0752 56.7098 45.0752H57.2815C57.4192 45.0752 57.5145 45.1598 57.5145 45.3184V45.6991C57.5145 46.7353 58.1498 47.1688 59.505 47.1688C60.8603 47.1688 61.4956 46.7141 61.4956 45.6356V45.3819C61.4956 44.4408 61.0509 44.2399 60.2144 44.0919L58.605 43.7958C57.2709 43.5526 56.551 43.1402 56.551 41.6071V41.3427C56.551 39.7355 57.5886 38.8791 59.5262 38.8791C61.4638 38.8791 62.4697 39.6192 62.4697 41.1841V41.4908C62.4697 41.6388 62.3956 41.7445 62.2368 41.7445H61.665C61.5168 41.7445 61.4215 41.6388 61.4215 41.4908V41.1841C61.4215 40.1691 60.8285 39.7355 59.5156 39.7355C58.2027 39.7355 57.6204 40.1796 57.6204 41.2581V41.5119C57.6204 42.4424 58.0545 42.6433 58.8803 42.7913L60.5109 43.0874C61.8344 43.3306 62.565 43.7641 62.565 45.2973V45.5616C62.565 47.19 61.485 48.0358 59.505 48.0358C57.5251 48.0358 56.4663 47.2957 56.4663 45.7202V45.7096Z" fill="white"/>
<path d="M63.645 47.6025C63.645 47.5391 63.6661 47.4545 63.7191 47.2959L66.2708 39.4714C66.3979 39.0907 66.5461 38.9638 66.8849 38.9638H67.4673C67.7955 38.9638 67.9543 39.0907 68.0814 39.4714L70.6331 47.2959C70.686 47.4439 70.7072 47.5391 70.7072 47.6025C70.7072 47.7822 70.5907 47.8986 70.3684 47.8986H70.0296C69.7755 47.8986 69.7013 47.8245 69.6061 47.5391L68.8543 45.16H65.4767L64.725 47.5391C64.6402 47.814 64.545 47.8986 64.2908 47.8986H63.9838C63.7508 47.8986 63.645 47.7822 63.645 47.6025ZM68.5578 44.2401L67.1602 39.8309L65.7626 44.2401H68.5578Z" fill="white"/>
<path d="M72.2637 47.3805V39.3233C72.2637 39.133 72.3907 39.0061 72.5813 39.0061H73.026C73.2166 39.0061 73.3437 39.133 73.3437 39.3233V46.9787H77.1765C77.3671 46.9787 77.4836 47.095 77.4836 47.2853V47.5814C77.4836 47.7717 77.3671 47.888 77.1765 47.888H72.7719C72.4543 47.888 72.2637 47.6977 72.2637 47.3805Z" fill="white"/>
<path d="M79.8659 47.4333L77.3142 39.5983C77.2612 39.4608 77.2401 39.3656 77.2401 39.3022C77.2401 39.1224 77.3565 39.0061 77.5789 39.0061H77.9177C78.1718 39.0061 78.2565 39.0801 78.3518 39.3656L80.7341 46.9364L83.1376 39.3656C83.2223 39.0907 83.307 39.0061 83.5611 39.0061H83.8788C84.1117 39.0061 84.207 39.1224 84.207 39.3022C84.207 39.3656 84.1964 39.4502 84.1435 39.5983L81.5918 47.4333C81.4647 47.814 81.3165 47.9409 80.9671 47.9409H80.4694C80.1412 47.9409 79.9824 47.814 79.8553 47.4333H79.8659Z" fill="white"/>
<path d="M84.4929 47.6025C84.4929 47.5391 84.5141 47.4545 84.567 47.2959L87.1187 39.4714C87.2458 39.0907 87.394 38.9638 87.7329 38.9638H88.3152C88.6434 38.9638 88.8022 39.0907 88.9293 39.4714L91.481 47.2959C91.534 47.4439 91.5552 47.5391 91.5552 47.6025C91.5552 47.7822 91.4387 47.8986 91.2163 47.8986H90.8775C90.6234 47.8986 90.5493 47.8245 90.454 47.5391L89.7022 45.16H86.3246L85.5729 47.5391C85.4882 47.814 85.3929 47.8986 85.1388 47.8986H84.8317C84.5988 47.8986 84.4929 47.7822 84.4929 47.6025ZM89.4058 44.2401L88.0081 39.8309L86.6105 44.2401H89.4058Z" fill="white"/>
<path d="M94.128 47.5708V39.9155H91.6504C91.4493 39.9155 91.3328 39.7992 91.3328 39.6088V39.3128C91.3328 39.1224 91.4493 39.0061 91.6504 39.0061H97.6962C97.8974 39.0061 98.0033 39.1224 98.0033 39.3128V39.6088C98.0033 39.7992 97.8974 39.9155 97.6962 39.9155H95.208V47.5708C95.208 47.7611 95.081 47.888 94.8904 47.888H94.4457C94.2551 47.888 94.128 47.7611 94.128 47.5708Z" fill="white"/>
<path d="M105.404 41.9033V45.0014C105.404 46.9575 104.176 48.036 102.101 48.036C100.026 48.036 98.7974 46.9575 98.7974 45.0014V41.9033C98.7974 39.9472 100.026 38.8687 102.101 38.8687C104.176 38.8687 105.404 39.9472 105.404 41.9033ZM102.101 47.1584C103.509 47.1584 104.293 46.4183 104.293 45.0648V41.8399C104.293 40.4864 103.53 39.7463 102.101 39.7463C100.671 39.7463 99.888 40.4864 99.888 41.8399V45.0648C99.888 46.4183 100.661 47.1584 102.101 47.1584Z" fill="white"/>
<path d="M112.467 47.74L109.841 44.3881C109.693 44.1872 109.608 44.0603 109.608 43.8912V43.87C109.608 43.6057 109.788 43.4471 110.053 43.4471H110.635C111.8 43.4471 112.403 42.9395 112.403 41.935V41.4169C112.403 40.4019 111.81 39.8943 110.635 39.8943H108.591V47.5708C108.591 47.7611 108.464 47.888 108.274 47.888H107.829C107.638 47.888 107.511 47.7611 107.511 47.5708V39.5771C107.511 39.2176 107.723 39.0061 108.083 39.0061H110.635C112.498 39.0061 113.494 39.852 113.494 41.4486V41.9139C113.494 43.373 112.657 44.1661 111.069 44.2718L113.345 47.0844C113.557 47.3487 113.494 47.6554 113.24 47.8457C112.996 48.0254 112.668 47.9726 112.467 47.7188V47.74Z" fill="white"/>
<path d="M115.325 47.3805V39.5137C115.325 39.1965 115.516 39.0061 115.834 39.0061H120.471C120.662 39.0061 120.778 39.1224 120.778 39.3128V39.6088C120.778 39.7992 120.662 39.9155 120.471 39.9155H116.405V42.9184H119.741C120.005 42.9184 120.196 43.0876 120.196 43.3413V43.3942C120.196 43.6585 120.005 43.8277 119.741 43.8277H116.405V46.9998H120.471C120.662 46.9998 120.778 47.1161 120.778 47.3064V47.6025C120.778 47.7928 120.662 47.9091 120.471 47.9091H115.834C115.516 47.9091 115.325 47.7188 115.325 47.4016V47.3805Z" fill="white"/>
</svg>
